<svg xmlns="http://www.w3.org/2000/svg" version="1.1" xmlns:xlink="http://www.w3.org/1999/xlink" xmlns:svgjs="http://svgjs.dev/svgjs" width="1000" height="1000" viewBox="0 0 1000 1000"><rect width="1000" height="1000" fill="#0d0d0d"></rect><g transform="matrix(0.7,0,0,0.7,149.57575757575756,282.1265587044535)"><svg viewBox="0 0 396 247" data-background-color="#0d0d0d" preserveAspectRatio="xMidYMid meet" height="623" width="1000" xmlns="http://www.w3.org/2000/svg" xmlns:xlink="http://www.w3.org/1999/xlink"><g id="tight-bounds" transform="matrix(1,0,0,1,0.2400000000000091,-0.09999999999999432)"><svg viewBox="0 0 395.52 247.2" height="247.2" width="395.52"><rect width="395.5199890136719" height="247.1999969482422" fill="url(#5b3f806b-7ff5-453a-bd4c-30be5ad6da4d)" mask="url(&quot;#9ede26bc-f3e1-49d3-9ec1-d594feab1cd1&quot;)" data-fill-palette-color="accent"></rect><g><svg></svg></g><g><svg viewBox="0 0 395.52 247.2" height="247.2" width="395.52"><g transform="matrix(1,0,0,1,39.55199999999999,79.41031029185868)"><svg viewBox="0 0 316.416 88.37937941628265" height="88.37937941628265" width="316.416"><g><svg viewBox="0 0 316.416 88.37937941628265" height="88.37937941628265" width="316.416"><g><svg viewBox="0 0 316.416 88.37937941628265" height="88.37937941628265" width="316.416"><g><svg viewBox="0 0 316.416 88.37937941628265" height="88.37937941628265" width="316.416"><g id="textblocktransform"><svg viewBox="0 0 316.416 88.37937941628265" height="88.37937941628265" width="316.416" id="textblock"><g><svg viewBox="0 0 316.416 88.37937941628265" height="88.37937941628265" width="316.416"><g transform="matrix(1,0,0,1,0,0)"><svg width="316.416" viewBox="-1.9000000953674316 -41.849998474121094 196.27999877929688 55.54999923706055" height="88.37937941628265" data-palette-color="#ffffff"><path d="M24.75-26.5L29.55-26.5 29.55 0 24.95 0 24.95-4.2Q23.35-2 20.9-0.85 18.45 0.3 15.5 0.3L15.5 0.3Q11.65 0.3 8.6-1.4 5.55-3.1 3.83-6.18 2.1-9.25 2.1-13.25L2.1-13.25Q2.1-17.25 3.83-20.3 5.55-23.35 8.6-25.05 11.65-26.75 15.5-26.75L15.5-26.75Q18.35-26.75 20.75-25.68 23.15-24.6 24.75-22.5L24.75-22.5 24.75-26.5ZM15.9-3.9Q18.4-3.9 20.45-5.08 22.5-6.25 23.65-8.38 24.8-10.5 24.8-13.25L24.8-13.25Q24.8-16 23.65-18.13 22.5-20.25 20.45-21.4 18.4-22.55 15.9-22.55L15.9-22.55Q13.35-22.55 11.33-21.4 9.3-20.25 8.13-18.13 6.95-16 6.95-13.25L6.95-13.25Q6.95-10.5 8.13-8.38 9.3-6.25 11.33-5.08 13.35-3.9 15.9-3.9L15.9-3.9ZM52.7-26.75Q56.55-26.75 59.6-25.05 62.65-23.35 64.37-20.3 66.1-17.25 66.1-13.25L66.1-13.25Q66.1-9.25 64.37-6.18 62.65-3.1 59.6-1.4 56.55 0.3 52.7 0.3L52.7 0.3Q49.85 0.3 47.47-0.8 45.1-1.9 43.45-4L43.45-4 43.45 9.7 38.65 9.7 38.65-26.5 43.25-26.5 43.25-22.3Q44.85-24.5 47.3-25.63 49.75-26.75 52.7-26.75L52.7-26.75ZM52.3-3.9Q54.85-3.9 56.87-5.08 58.9-6.25 60.07-8.38 61.25-10.5 61.25-13.25L61.25-13.25Q61.25-16 60.07-18.13 58.9-20.25 56.87-21.4 54.85-22.55 52.3-22.55L52.3-22.55Q49.8-22.55 47.77-21.38 45.75-20.2 44.57-18.1 43.4-16 43.4-13.25L43.4-13.25Q43.4-10.5 44.55-8.38 45.7-6.25 47.75-5.08 49.8-3.9 52.3-3.9L52.3-3.9ZM72.75 0L72.75-26.5 77.55-26.5 77.55 0 72.75 0ZM75.15-31.6Q73.75-31.6 72.82-32.5 71.9-33.4 71.9-34.7L71.9-34.7Q71.9-36 72.82-36.93 73.75-37.85 75.15-37.85L75.15-37.85Q76.55-37.85 77.47-36.98 78.4-36.1 78.4-34.8L78.4-34.8Q78.4-33.45 77.47-32.52 76.55-31.6 75.15-31.6L75.15-31.6ZM101.74-30.95Q96.94-30.95 94.52-28.78 92.09-26.6 92.09-22.45L92.09-22.45 92.09-18.45 108.09-18.45 108.09-14.15 92.09-14.15 92.09 0 87.09 0 87.09-22.5Q87.09-28.55 90.92-31.98 94.74-35.4 101.59-35.4L101.59-35.4Q104.59-35.4 107.19-34.73 109.79-34.05 111.69-32.75L111.69-32.75 110.04-28.6Q106.69-30.95 101.74-30.95L101.74-30.95ZM120.59-22.05Q121.84-24.35 124.29-25.55 126.74-26.75 130.24-26.75L130.24-26.75 130.24-22.1Q129.84-22.15 129.14-22.15L129.14-22.15Q125.24-22.15 123.02-19.83 120.79-17.5 120.79-13.2L120.79-13.2 120.79 0 115.99 0 115.99-26.5 120.59-26.5 120.59-22.05ZM147.84-3.9Q152.59-3.9 155.49-7.1L155.49-7.1 158.09-4Q156.34-1.9 153.66-0.8 150.99 0.3 147.69 0.3L147.69 0.3Q143.49 0.3 140.24-1.43 136.99-3.15 135.21-6.25 133.44-9.35 133.44-13.25L133.44-13.25Q133.44-17.1 135.16-20.2 136.89-23.3 139.91-25.03 142.94-26.75 146.74-26.75L146.74-26.75Q150.34-26.75 153.29-25.13 156.24-23.5 157.99-20.55 159.74-17.6 159.79-13.75L159.79-13.75 138.74-9.65Q139.74-6.9 142.11-5.4 144.49-3.9 147.84-3.9L147.84-3.9ZM146.74-22.7Q144.24-22.7 142.26-21.55 140.29-20.4 139.19-18.32 138.09-16.25 138.09-13.5L138.09-13.5 138.09-13 155.04-16.2Q154.39-19.1 152.14-20.9 149.89-22.7 146.74-22.7L146.74-22.7ZM178.44-3.9Q183.19-3.9 186.09-7.1L186.09-7.1 188.69-4Q186.94-1.9 184.26-0.8 181.59 0.3 178.28 0.3L178.28 0.3Q174.09 0.3 170.84-1.43 167.59-3.15 165.81-6.25 164.03-9.35 164.03-13.25L164.03-13.25Q164.03-17.1 165.76-20.2 167.49-23.3 170.51-25.03 173.53-26.75 177.34-26.75L177.34-26.75Q180.94-26.75 183.88-25.13 186.84-23.5 188.59-20.55 190.34-17.6 190.38-13.75L190.38-13.75 169.34-9.65Q170.34-6.9 172.71-5.4 175.09-3.9 178.44-3.9L178.44-3.9ZM177.34-22.7Q174.84-22.7 172.86-21.55 170.88-20.4 169.78-18.32 168.69-16.25 168.69-13.5L168.69-13.5 168.69-13 185.63-16.2Q184.99-19.1 182.74-20.9 180.49-22.7 177.34-22.7L177.34-22.7Z" opacity="1" transform="matrix(1,0,0,1,0,0)" fill="#ffffff" class="undefined-text-0" data-fill-palette-color="primary" id="text-0"></path></svg></g></svg></g></svg></g></svg></g></svg></g></svg></g></svg></g><g mask="url(&quot;#f30c36f9-2c37-4e0d-aec4-ac0cfe6eb93f&quot;)"><g transform="matrix(2.7552935542436248, 0, 0, 2.7552935542436248, 81.93273278366668, 1)"><svg xmlns="http://www.w3.org/2000/svg" xmlns:xlink="http://www.w3.org/1999/xlink" version="1.1" x="0" y="0" viewBox="8.3388671875 5.307672500610352 84.076171875 88.9923324584961" style="enable-background:new 0 0 100 100;" xml:space="preserve" height="88.9923324584961" width="84.076171875" class="icon-none" data-fill-palette-color="accent" id="none"></svg></g></g><mask id="f30c36f9-2c37-4e0d-aec4-ac0cfe6eb93f"><rect width="640" height="400" fill="white"></rect><g transform="matrix(1,0,0,1,39.55199999999999,79.41031029185868)"><svg viewBox="0 0 316.416 88.37937941628265" height="88.37937941628265" width="316.416"><g><svg viewBox="0 0 316.416 88.37937941628265" height="88.37937941628265" width="316.416"><g><svg viewBox="0 0 316.416 88.37937941628265" height="88.37937941628265" width="316.416"><g><svg viewBox="0 0 316.416 88.37937941628265" height="88.37937941628265" width="316.416"><g id="SvgjsG1171"><svg viewBox="0 0 316.416 88.37937941628265" height="88.37937941628265" width="316.416" id="SvgjsSvg1170"><g><svg viewBox="0 0 316.416 88.37937941628265" height="88.37937941628265" width="316.416"><g transform="matrix(1,0,0,1,0,0)"><svg width="316.416" viewBox="-1.9000000953674316 -41.849998474121094 196.27999877929688 55.54999923706055" height="88.37937941628265" data-palette-color="#ffffff"><path d="M24.75-26.5L29.55-26.5 29.55 0 24.95 0 24.95-4.2Q23.35-2 20.9-0.85 18.45 0.3 15.5 0.3L15.5 0.3Q11.65 0.3 8.6-1.4 5.55-3.1 3.83-6.18 2.1-9.25 2.1-13.25L2.1-13.25Q2.1-17.25 3.83-20.3 5.55-23.35 8.6-25.05 11.65-26.75 15.5-26.75L15.5-26.75Q18.35-26.75 20.75-25.68 23.15-24.6 24.75-22.5L24.75-22.5 24.75-26.5ZM15.9-3.9Q18.4-3.9 20.45-5.08 22.5-6.25 23.65-8.38 24.8-10.5 24.8-13.25L24.8-13.25Q24.8-16 23.65-18.13 22.5-20.25 20.45-21.4 18.4-22.55 15.9-22.55L15.9-22.55Q13.35-22.55 11.33-21.4 9.3-20.25 8.13-18.13 6.95-16 6.95-13.25L6.95-13.25Q6.95-10.5 8.13-8.38 9.3-6.25 11.33-5.08 13.35-3.9 15.9-3.9L15.9-3.9ZM52.7-26.75Q56.55-26.75 59.6-25.05 62.65-23.35 64.37-20.3 66.1-17.25 66.1-13.25L66.1-13.25Q66.1-9.25 64.37-6.18 62.65-3.1 59.6-1.4 56.55 0.3 52.7 0.3L52.7 0.3Q49.85 0.3 47.47-0.8 45.1-1.9 43.45-4L43.45-4 43.45 9.7 38.65 9.7 38.65-26.5 43.25-26.5 43.25-22.3Q44.85-24.5 47.3-25.63 49.75-26.75 52.7-26.75L52.7-26.75ZM52.3-3.9Q54.85-3.9 56.87-5.08 58.9-6.25 60.07-8.38 61.25-10.5 61.25-13.25L61.25-13.25Q61.25-16 60.07-18.13 58.9-20.25 56.87-21.4 54.85-22.55 52.3-22.55L52.3-22.55Q49.8-22.55 47.77-21.38 45.75-20.2 44.57-18.1 43.4-16 43.4-13.25L43.4-13.25Q43.4-10.5 44.55-8.38 45.7-6.25 47.75-5.08 49.8-3.9 52.3-3.9L52.3-3.9ZM72.75 0L72.75-26.5 77.55-26.5 77.55 0 72.75 0ZM75.15-31.6Q73.75-31.6 72.82-32.5 71.9-33.4 71.9-34.7L71.9-34.7Q71.9-36 72.82-36.93 73.75-37.85 75.15-37.85L75.15-37.85Q76.55-37.85 77.47-36.98 78.4-36.1 78.4-34.8L78.4-34.8Q78.4-33.45 77.47-32.52 76.55-31.6 75.15-31.6L75.15-31.6ZM101.74-30.95Q96.94-30.95 94.52-28.78 92.09-26.6 92.09-22.45L92.09-22.45 92.09-18.45 108.09-18.45 108.09-14.15 92.09-14.15 92.09 0 87.09 0 87.09-22.5Q87.09-28.55 90.92-31.98 94.74-35.4 101.59-35.4L101.59-35.4Q104.59-35.4 107.19-34.73 109.79-34.05 111.69-32.75L111.69-32.75 110.04-28.6Q106.69-30.95 101.74-30.95L101.74-30.95ZM120.59-22.05Q121.84-24.35 124.29-25.55 126.74-26.75 130.24-26.75L130.24-26.75 130.24-22.1Q129.84-22.15 129.14-22.15L129.14-22.15Q125.24-22.15 123.02-19.83 120.79-17.5 120.79-13.2L120.79-13.2 120.79 0 115.99 0 115.99-26.5 120.59-26.5 120.59-22.05ZM147.84-3.9Q152.59-3.9 155.49-7.1L155.49-7.1 158.09-4Q156.34-1.9 153.66-0.8 150.99 0.3 147.69 0.3L147.69 0.3Q143.49 0.3 140.24-1.43 136.99-3.15 135.21-6.25 133.44-9.35 133.44-13.25L133.44-13.25Q133.44-17.1 135.16-20.2 136.89-23.3 139.91-25.03 142.94-26.75 146.74-26.75L146.74-26.75Q150.34-26.75 153.29-25.13 156.24-23.5 157.99-20.55 159.74-17.6 159.79-13.75L159.79-13.75 138.74-9.65Q139.74-6.9 142.11-5.4 144.49-3.9 147.84-3.9L147.84-3.9ZM146.74-22.7Q144.24-22.7 142.26-21.55 140.29-20.4 139.19-18.32 138.09-16.25 138.09-13.5L138.09-13.5 138.09-13 155.04-16.2Q154.39-19.1 152.14-20.9 149.89-22.7 146.74-22.7L146.74-22.7ZM178.44-3.9Q183.19-3.9 186.09-7.1L186.09-7.1 188.69-4Q186.94-1.9 184.26-0.8 181.59 0.3 178.28 0.3L178.28 0.3Q174.09 0.3 170.84-1.43 167.59-3.15 165.81-6.25 164.03-9.35 164.03-13.25L164.03-13.25Q164.03-17.1 165.76-20.2 167.49-23.3 170.51-25.03 173.53-26.75 177.34-26.75L177.34-26.75Q180.94-26.75 183.88-25.13 186.84-23.5 188.59-20.55 190.34-17.6 190.38-13.75L190.38-13.75 169.34-9.65Q170.34-6.9 172.71-5.4 175.09-3.9 178.44-3.9L178.44-3.9ZM177.34-22.7Q174.84-22.7 172.86-21.55 170.88-20.4 169.78-18.32 168.69-16.25 168.69-13.5L168.69-13.5 168.69-13 185.63-16.2Q184.99-19.1 182.74-20.9 180.49-22.7 177.34-22.7L177.34-22.7Z" opacity="1" transform="matrix(1,0,0,1,0,0)" fill="#ffffff" class="undefined-text-0" data-fill-palette-color="primary" id="SvgjsPath1169" stroke-width="7" stroke="black" stroke-linejoin="round"></path></svg></g></svg></g></svg></g></svg></g></svg></g></svg></g></svg></g></mask></svg></g><defs><linearGradient x1="0" x2="1" y1="0.548" y2="0.55" id="5b3f806b-7ff5-453a-bd4c-30be5ad6da4d"><stop stop-color="#ff6cab" offset="0"></stop><stop stop-color="#7366ff" offset="1"></stop></linearGradient></defs><mask id="9ede26bc-f3e1-49d3-9ec1-d594feab1cd1"><g id="SvgjsG1180"><svg viewBox="0 0 395.52 247.2" height="247.2" width="395.52"><g><svg></svg></g><g><svg viewBox="0 0 395.52 247.2" height="247.2" width="395.52"><g transform="matrix(1,0,0,1,39.55199999999999,79.41031029185868)"><svg viewBox="0 0 316.416 88.37937941628265" height="88.37937941628265" width="316.416"><g><svg viewBox="0 0 316.416 88.37937941628265" height="88.37937941628265" width="316.416"><g><svg viewBox="0 0 316.416 88.37937941628265" height="88.37937941628265" width="316.416"><g><svg viewBox="0 0 316.416 88.37937941628265" height="88.37937941628265" width="316.416"><g id="SvgjsG1179"><svg viewBox="0 0 316.416 88.37937941628265" height="88.37937941628265" width="316.416" id="SvgjsSvg1178"><g><svg viewBox="0 0 316.416 88.37937941628265" height="88.37937941628265" width="316.416"><g transform="matrix(1,0,0,1,0,0)"><svg width="316.416" viewBox="-1.9000000953674316 -41.849998474121094 196.27999877929688 55.54999923706055" height="88.37937941628265" data-palette-color="#ffffff"></svg></g></svg></g></svg></g></svg></g></svg></g></svg></g></svg></g><g mask="url(&quot;#f30c36f9-2c37-4e0d-aec4-ac0cfe6eb93f&quot;)"><g transform="matrix(2.7552935542436248, 0, 0, 2.7552935542436248, 81.93273278366668, 1)"><svg xmlns="http://www.w3.org/2000/svg" xmlns:xlink="http://www.w3.org/1999/xlink" version="1.1" x="0" y="0" viewBox="8.3388671875 5.307672500610352 84.076171875 88.9923324584961" style="enable-background:new 0 0 100 100;" xml:space="preserve" height="88.9923324584961" width="84.076171875" class="icon-none" data-fill-palette-color="accent" id="SvgjsSvg1176"><path d="M39.5 94.3c-3.6 0-7.2-0.7-10.6-2.3-8.3-3.7-14-11.2-15.2-20.2L8.6 35C7.2 25 11.5 15.4 19.8 9.8c8.3-5.6 18.8-6 27.5-1l32.1 18.4c7.8 4.5 12.7 12.5 13 21.5s-3.9 17.4-11.3 22.5l-27 18.4C49.7 92.8 44.6 94.3 39.5 94.3zM34.3 14.3c-3.3 0-6.6 1-9.5 3-5.5 3.7-8.3 9.9-7.3 16.4l5.1 36.9c0.8 5.9 4.5 10.8 10 13.2 5.4 2.4 11.6 1.8 16.5-1.5l27-18.4c4.9-3.3 7.6-8.8 7.4-14.7C83.2 43.3 80 38 74.9 35.1L42.9 16.6C40.2 15.1 37.2 14.3 34.3 14.3z" fill="white"></path></svg></g></g><mask id="SvgjsMask1175"><g transform="matrix(1,0,0,1,39.55199999999999,79.41031029185868)"><svg viewBox="0 0 316.416 88.37937941628265" height="88.37937941628265" width="316.416"><g><svg viewBox="0 0 316.416 88.37937941628265" height="88.37937941628265" width="316.416"><g><svg viewBox="0 0 316.416 88.37937941628265" height="88.37937941628265" width="316.416"><g><svg viewBox="0 0 316.416 88.37937941628265" height="88.37937941628265" width="316.416"><g id="SvgjsG1174"><svg viewBox="0 0 316.416 88.37937941628265" height="88.37937941628265" width="316.416" id="SvgjsSvg1173"><g><svg viewBox="0 0 316.416 88.37937941628265" height="88.37937941628265" width="316.416"><g transform="matrix(1,0,0,1,0,0)"><svg width="316.416" viewBox="-1.9000000953674316 -41.849998474121094 196.27999877929688 55.54999923706055" height="88.37937941628265" data-palette-color="#ffffff"></svg></g></svg></g></svg></g></svg></g></svg></g></svg></g></svg></g></mask></svg></g><defs><mask></mask></defs></svg></g></mask></svg><rect width="395.52" height="247.2" fill="none" stroke="none" visibility="hidden"></rect></g></svg></g></svg>